<svg xmlns="http://www.w3.org/2000/svg" viewBox="0 0 28 28" id="tcs"><path fill="#DEFF8F" d="M6.366 7.015c2.68-2.68 6.972-.517 8.491 1.485 2.443 3.219 2.379 7.957 5.291 8.592 2.187.477.194 3.997-1.844 6.423s-4.594 2.518-6.859-1.815S3.842 9.539 6.366 7.015z"></path><path d="M14.11 26c-.106 0-1.042-.044-1.782-1.531L3.057 6.731a.5.5 0 0 1 .032-.516l2.782-3.999a.5.5 0 0 1 .411-.215h8.569c.226-.049 1.054.037 2.04 1.989l4.381 8.155c.114.206.54.813.971.857L24.5 13a.498.498 0 0 1 .402.797l-8.882 12a.498.498 0 0 1-.402.203H14.11zM4.083 6.537l9.136 17.478c.459.922.914.985.918.986L15.366 25l8.142-11h-1.317c-1.081-.107-1.729-1.25-1.8-1.38l-4.388-8.168c-.686-1.359-1.143-1.453-1.147-1.454l-8.313.003-2.46 3.536z"></path><path d="M20.238 17.592c-.095 0-1.557-.038-2.611-2.191l-4.421-8c-.036-.072-.224-.405-.79-.401H3.5a.5.5 0 0 1 0-1h8.893c1.005-.061 1.542.58 1.708.957l4.413 7.981c.784 1.6 1.695 1.652 1.734 1.653l1.5-.001a.5.5 0 0 1 0 1l-1.506.001-.004.001z"></path><path d="M18.949 21.5h-2.197c-.901 0-1.542-1.008-1.611-1.123L7.633 6.741a.5.5 0 1 1 .876-.482l7.496 13.617c.155.25.512.624.747.624h2.197a.5.5 0 0 1 0 1z"></path></svg>